<svg xmlns="http://www.w3.org/2000/svg" viewBox="0 0 64 64" fill="none" stroke="#4E7BD4" stroke-width="2" stroke-linecap="round" stroke-linejoin="round">
  <circle cx="14" cy="20" r="3"/>
  <circle cx="14" cy="32" r="3"/>
  <circle cx="14" cy="44" r="3"/>
  <circle cx="32" cy="16" r="3"/>
  <circle cx="32" cy="32" r="3"/>
  <circle cx="32" cy="48" r="3"/>
  <circle cx="50" cy="26" r="3"/>
  <circle cx="50" cy="38" r="3"/>
  <path d="M17 20l12-4M17 32l12-16M17 44l12-28"/>
  <path d="M17 20l12 12M17 32l12 0M17 44l12-12"/>
  <path d="M17 20l12 28M17 32l12 16M17 44l12 4"/>
  <path d="M35 16l12 10M35 32l12-6M35 48l12-22"/>
  <path d="M35 16l12 22M35 32l12 6M35 48l12-10"/>
</svg>
